# xmcd
#
# Track frame offsets: 
#        150
#        12429
#        26105
#        47246
#        59988
#        75312
#        88910
#        109888
#        125588
#        145064
#
# Disc length: 2089 seconds
#
# Revision: 0
# Processed by: cddbd v1.5.2PL0 Copyright (c) Steve Scherf et al.
# Submitted via: ExactAudioCopy v1.0b3
#
DISCID=8e08270a
DTITLE=Various Artist - Opry Legends Gospel Favorites [CD2]
DYEAR=2012
DGENRE=Gospel
TTITLE0=Charley Pride - On the Wings of a Dove
TTITLE1=Mell Tillis - Precious Memories
TTITLE2=Crystal Gayle - In the Garden
TTITLE3=George Hamilton IV - Life's Railway to Heaven
TTITLE4=John Conlee - Clinging to a Saving Hand
TTITLE5=Jean Shepard - Where No One Stands Alone
TTITLE6=The Oak Ridge Boys - This Little Light of Mine
TTITLE7=Ray Pillow - It is No Secret (What God Can Do)
TTITLE8=Jan Howard - Just a Closer Walk with Thee
TTITLE9=Various Artist - I'll Fly Away
EXTD=
EXTT0=
EXTT1=
EXTT2=
EXTT3=
EXTT4=
EXTT5=
EXTT6=
EXTT7=
EXTT8=
EXTT9=
PLAYORDER=
